<?xml version="1.0" encoding="UTF-8" standalone="no"?>
<svg width="262px" height="79px" viewBox="0 0 262 79" version="1.1" xmlns="http://www.w3.org/2000/svg" xmlns:xlink="http://www.w3.org/1999/xlink">
    <!-- Generator: Sketch 42 (36781) - http://www.bohemiancoding.com/sketch -->
    <title>logo</title>
    <desc>Created with Sketch.</desc>
    <defs></defs>
    <g id="Page-1" stroke="none" stroke-width="1" fill="none" fill-rule="evenodd">
        <g id="logo" transform="translate(-1.000000, 0.000000)" fill-rule="nonzero">
            <g id="Page-1">
                <g id="Internews-logo-notag-1">
                    <rect id="Rectangle-path" fill="#002D62" x="93.3236364" y="24.5963636" width="5.99272727" height="27.2436364"></rect>
                    <path d="M102.865455,32.1163636 L108.014545,32.1163636 L108.014545,34.9090909 L108.130909,34.9090909 C109.432325,32.8432289 111.71122,31.599194 114.152727,31.6218182 C119.970909,31.6218182 121.425455,34.8654545 121.425455,39.7527273 L121.425455,51.8836364 L115.956364,51.8836364 L115.956364,40.7272727 C115.956364,37.4836364 114.996364,35.8836364 112.48,35.8836364 C109.570909,35.8836364 108.290909,37.5272727 108.290909,41.5418182 L108.290909,51.8690909 L102.865455,51.8690909 L102.865455,32.1163636 Z" id="Shape" fill="#002D62"></path>
                    <path d="M131.374545,32.1163636 L135.345455,32.1163636 L135.345455,35.6945455 L131.374545,35.6945455 L131.374545,45.4545455 C131.374545,47.2872727 131.825455,47.7381818 133.658182,47.7381818 C134.2192,47.7452483 134.779531,47.6965238 135.330909,47.5927273 L135.330909,51.8254545 C134.285171,51.9691025 133.229954,52.0323183 132.174545,52.0145455 C128.858182,52.0145455 125.949091,51.2581818 125.949091,47.3309091 L125.949091,35.6945455 L122.676364,35.6945455 L122.676364,32.1163636 L125.963636,32.1163636 L125.963636,26.1818182 L131.389091,26.1818182 L131.374545,32.1163636 Z" id="Shape" fill="#002D62"></path>
                    <path d="M141.978182,43.3018182 C142.138182,46.7345455 143.810909,48.3054545 146.821818,48.3054545 C148.635194,48.4009959 150.325837,47.3889104 151.098182,45.7454545 L155.869091,45.7454545 C154.79192,49.8921347 150.905567,52.6768454 146.632727,52.3636364 C140.421818,52.3636364 136.552727,48.0872727 136.552727,41.9781818 C136.409964,39.3588001 137.313608,36.7899914 139.064862,34.8368787 C140.816117,32.8837661 143.271524,31.7063433 145.890909,31.5636364 L146.632727,31.5636364 C153.352727,31.5636364 156.596364,37.2072727 156.203636,43.2872727 L141.978182,43.3018182 Z M150.792727,39.8690909 C150.298182,37.12 149.12,35.6654545 146.429091,35.6654545 C145.294506,35.6020231 144.181329,35.9927795 143.335327,36.7514531 C142.489324,37.5101267 141.980071,38.5743231 141.92,39.7090909 L141.92,39.8690909 L150.792727,39.8690909 Z" id="Shape" fill="#002D62"></path>
                    <path d="M158.618182,32.1890909 L163.767273,32.1890909 L163.767273,35.8545455 L163.84,35.8545455 C164.945242,33.2967217 167.468156,31.6433837 170.254545,31.6509091 C170.654575,31.6540121 171.051818,31.7177673 171.432727,31.84 L171.432727,36.8727273 C170.791041,36.7443187 170.138039,36.6809677 169.483636,36.6836364 C165.512727,36.6836364 164.145455,39.5927273 164.145455,43.0109091 L164.145455,51.8981818 L158.618182,51.8981818 L158.618182,32.1890909 Z" id="Shape" fill="#002D62"></path>
                    <path d="M173.396364,32.2181818 L178.545455,32.2181818 L178.545455,34.9090909 L178.661818,34.9090909 C179.98538,32.8521098 182.281777,31.6295674 184.727273,31.68 C190.545455,31.68 192,34.9236364 192,39.8109091 L192,51.9418182 L186.589091,51.9418182 L186.589091,40.7272727 C186.589091,37.4836364 185.629091,35.8836364 183.112727,35.8836364 C180.203636,35.8836364 178.923636,37.5272727 178.923636,41.5272727 L178.923636,51.8690909 L173.498182,51.8690909 L173.396364,32.2181818 Z" id="Shape" fill="#002D62"></path>
                    <path d="M199.345455,43.3018182 C199.490909,46.7345455 201.178182,48.3054545 204.189091,48.3054545 C206.003472,48.4050511 207.696209,47.3917113 208.465455,45.7454545 L213.236364,45.7454545 C212.159193,49.8921347 208.272839,52.6768454 204,52.3636364 C197.789091,52.3636364 193.934545,48.0872727 193.934545,41.9781818 C193.791782,39.3588001 194.695425,36.7899914 196.446681,34.8368787 C198.197935,32.8837661 200.653343,31.7063433 203.272727,31.5636364 L204,31.5636364 C210.72,31.5636364 213.963636,37.2072727 213.585455,43.2872727 L199.345455,43.3018182 Z M208.16,39.8690909 C207.665455,37.12 206.472727,35.6654545 203.796364,35.6654545 C202.661951,35.6182054 201.555315,36.0240273 200.720394,36.7934641 C199.885473,37.5629008 199.390813,38.6327825 199.345455,39.7672727 L199.345455,39.8545455 L208.16,39.8690909 Z" id="Shape" fill="#002D62"></path>
                    <polygon id="Shape" fill="#002D62" points="238.08 51.84 232.509091 51.84 229.003636 38.6036364 228.930909 38.6036364 225.570909 51.84 219.956364 51.84 213.701818 32.1163636 219.432727 32.1163636 223.054545 45.5127273 223.127273 45.5127273 226.4 32.1163636 231.665455 32.1163636 235.025455 45.4690909 235.112727 45.4690909 238.734545 32.1163636 244.305455 32.1163636"></polygon>
                    <path d="M249.643636,45.4254545 C249.643636,47.7963636 251.665455,48.7418182 253.803636,48.7418182 C255.374545,48.7418182 257.352727,48.1309091 257.352727,46.2254545 C257.352727,44.5818182 255.098182,44.0145455 251.214545,43.1709091 C248.087273,42.4872727 244.96,41.3818182 244.96,37.9054545 C244.96,32.8727273 249.323636,31.5636364 253.541818,31.5636364 C257.76,31.5636364 261.818182,33.0181818 262.269091,37.8618182 L257.12,37.8618182 C256.974545,35.7672727 255.36,35.1854545 253.425455,35.1854545 C252.203636,35.1854545 250.414545,35.4181818 250.414545,37.0181818 C250.414545,38.9672727 253.469091,39.2290909 256.567273,39.9272727 C259.665455,40.6254545 262.821818,41.8036364 262.821818,45.4690909 C262.821818,50.6618182 258.327273,52.3345455 253.818182,52.3345455 C249.309091,52.3345455 244.770909,50.6181818 244.552727,45.3818182 L249.643636,45.4254545 Z" id="Shape" fill="#002D62"></path>
                    <path d="M17.1054545,56.2472727 L21.2654545,56.6254545 C21.2654545,53.2945455 21.3672727,51.1709091 21.3672727,51.1709091 C15.1507926,51.0499328 8.94977254,50.5056426 2.80727273,49.5418182 C4.96188369,57.5203549 9.57853837,64.6158528 16,69.8181818 C12.64,54.6763636 13.5563636,55.84 17.1054545,56.2472727 L17.1054545,56.2472727 Z" id="Shape" fill="#FBB034"></path>
                    <path d="M59.1127273,4.56727273 C47.754958,-1.44630332 34.1734977,-1.52235949 22.7490909,4.36363636 C21.7443286,7.35147023 21.2094755,10.4771713 21.1636364,13.6290909 C28.3882979,12.6018545 35.6879284,12.1979416 42.9818182,12.4218182 C48.0436364,12.4218182 48.3781818,12.5963636 49.0472727,14.3418182 L49.0472727,19.4036364 C53.4981818,19.4036364 57.7745455,19.4036364 61.4981818,19.6218182 C61.4976813,14.5095713 60.6926832,9.42924844 59.1127273,4.56727273 L59.1127273,4.56727273 Z" id="Shape" fill="#6CB33F"></path>
                    <path d="M27.6363636,66.8072727 C24.4945455,66.3854545 24.6254545,65.0909091 24.6109091,64.1890909 C24.6109091,63.9127273 24.6109091,60.9163636 24.48,56.9163636 C20.5818182,56.5963636 17.8472727,56.3490909 17.1345455,56.2763636 C13.5563636,55.8545455 12.64,54.7054545 16,69.8181818 C32.6894876,83.3511655 57.1561265,80.9595921 70.9090909,64.4509091 C64.6545455,66.0072727 51.6509091,67.9418182 27.6363636,66.8072727 L27.6363636,66.8072727 Z" id="Shape" fill="#F15D22"></path>
                    <path d="M59.1127273,4.56727273 C62.0218182,11.9854545 61.5272727,24.9309091 61.6,25.7018182 C61.6727273,26.4727273 61.0618182,28.6109091 65.7454545,28.5090909 C70.1318612,28.4923789 74.5115969,28.8524905 78.8363636,29.5854545 C76.0797201,18.8399252 68.9180593,9.7558127 59.1127273,4.56727273 L59.1127273,4.56727273 Z" id="Shape" fill="#626264"></path>
                    <path d="M26.56,31.3309091 C28.1309091,31.3309091 37.7018182,31.1563636 49.2072727,31.2290909 L49.0181818,14.4290909 C48.3345455,12.6836364 48.0145455,12.5527273 42.9527273,12.5090909 C31.6540665,12.2104822 20.3611223,13.2899548 9.32363636,15.7236364 C2.57485316,24.722319 -0.00314119917,36.177719 2.24,47.2 C7.62181818,47.6218182 16.1745455,47.9127273 24.2909091,48.0727273 L24.0436364,33.5272727 C24.0436364,33.5272727 23.6218182,31.3309091 26.56,31.3309091 L26.56,31.3309091 Z" id="Shape" fill="#002D62"></path>
                    <path d="M79.3745455,32 C70.4436364,31.3890909 59.1127273,31.1709091 49.1927273,31.0981818 L49.3527273,45.1781818 C49.3527273,45.1781818 49.7454545,48.0872727 45.3818182,48.0872727 C43.1272727,48.0872727 34.0218182,48.0872727 24.2909091,47.9127273 C24.4218182,55.6072727 24.5672727,63.5636364 24.5672727,64.0290909 C24.5672727,64.9309091 24.4509091,66.2109091 27.5927273,66.6472727 C51.6509091,67.7963636 64.6690909,65.8472727 70.9090909,64.32 C76.8027465,57.3017476 80.0458186,48.4373504 80.0727273,39.2727273 C80.0644029,36.8321599 79.8306829,34.3975773 79.3745455,32 L79.3745455,32 Z" id="Shape" fill="#005CAB"></path>
                    <path d="M49.3527273,45.2509091 L49.1927273,31.1709091 C37.6872727,31.1709091 28.1163636,31.1709091 26.5454545,31.2727273 C23.6363636,31.2727273 24.0290909,33.4690909 24.0290909,33.4690909 L24.2763636,48.0145455 C34.0072727,48.2181818 43.0981818,48.2472727 45.3672727,48.1890909 C49.76,48.1163636 49.3527273,45.2509091 49.3527273,45.2509091 L49.3527273,45.2509091 Z" id="Shape" fill="#B1BCE0"></path>
                </g>
            </g>
        </g>
    </g>
</svg>